<?xml version="1.0" encoding="UTF-8" standalone="no"?>
<!DOCTYPE svg PUBLIC "-//W3C//DTD SVG 1.1//EN"
 "http://www.w3.org/Graphics/SVG/1.1/DTD/svg11.dtd">
<!-- Generated by graphviz version 8.1.0 (0)
 -->
<!-- Pages: 1 -->
<svg width="781pt" height="488pt"
 viewBox="0.00 0.00 780.50 488.11" xmlns="http://www.w3.org/2000/svg" xmlns:xlink="http://www.w3.org/1999/xlink">
<g id="graph0" class="graph" transform="scale(1 1) rotate(0) translate(4 484.11)">
<polygon fill="white" stroke="none" points="-4,4 -4,-484.11 776.5,-484.11 776.5,4 -4,4"/>
<!-- Agda.Syntax.Position.RangeFile\n@[147,163] -->
<g id="node1" class="node">
<title>Agda.Syntax.Position.RangeFile\n@[147,163]</title>
<polygon fill="#fbb4ae" stroke="black" points="591.25,-434.11 591.25,-461.06 481.85,-480.11 327.15,-480.11 217.75,-461.06 217.75,-434.11 327.15,-415.06 481.85,-415.06 591.25,-434.11"/>
<text text-anchor="middle" x="404.5" y="-451.53" font-family="Times,serif" font-size="14.00">Agda.Syntax.Position.RangeFile</text>
<text text-anchor="middle" x="404.5" y="-434.28" font-family="Times,serif" font-size="14.00">@[147,163]</text>
</g>
<!-- Agda.Syntax.Position.RangeFile\n@[147,163]&#45;&gt;Agda.Syntax.Position.RangeFile\n@[147,163] -->
<g id="edge1" class="edge">
<title>Agda.Syntax.Position.RangeFile\n@[147,163]&#45;&gt;Agda.Syntax.Position.RangeFile\n@[147,163]</title>
<path fill="none" stroke="black" d="M591.5,-459.17C602.6,-456.4 609.25,-452.54 609.25,-447.58 609.25,-444.41 606.52,-441.69 601.64,-439.41"/>
<polygon fill="black" stroke="black" points="603.1,-435.87 592.5,-436 600.87,-442.51 603.1,-435.87"/>
</g>
<!-- Agda.Syntax.TopLevelModuleName.TopLevelModuleName\n@[141,146] -->
<g id="node6" class="node">
<title>Agda.Syntax.TopLevelModuleName.TopLevelModuleName\n@[141,146]</title>
<polygon fill="#b3cde3" stroke="black" points="433,-379.06 0,-379.06 0,-336.56 433,-336.56 433,-379.06"/>
<text text-anchor="middle" x="216.5" y="-361.76" font-family="Times,serif" font-size="14.00">Agda.Syntax.TopLevelModuleName.TopLevelModuleName</text>
<text text-anchor="middle" x="216.5" y="-344.51" font-family="Times,serif" font-size="14.00">@[141,146]</text>
</g>
<!-- Agda.Syntax.Position.RangeFile\n@[147,163]&#45;&gt;Agda.Syntax.TopLevelModuleName.TopLevelModuleName\n@[141,146] -->
<g id="edge2" class="edge">
<title>Agda.Syntax.Position.RangeFile\n@[147,163]&#45;&gt;Agda.Syntax.TopLevelModuleName.TopLevelModuleName\n@[141,146]</title>
<path fill="none" stroke="black" d="M336.1,-414.65C314.53,-404.58 291.02,-393.6 270.6,-384.07"/>
<polygon fill="black" stroke="black" points="272.39,-380.57 261.84,-379.51 269.42,-386.91 272.39,-380.57"/>
</g>
<!-- Agda.Syntax.Position.Range\n@[253,253] -->
<g id="node2" class="node">
<title>Agda.Syntax.Position.Range\n@[253,253]</title>
<polygon fill="#fbb4ae" stroke="black" points="375,-199.5 158,-199.5 158,-157 375,-157 375,-199.5"/>
<text text-anchor="middle" x="266.5" y="-182.2" font-family="Times,serif" font-size="14.00">Agda.Syntax.Position.Range</text>
<text text-anchor="middle" x="266.5" y="-164.95" font-family="Times,serif" font-size="14.00">@[253,253]</text>
</g>
<!-- Agda.Syntax.Position.Range\n@[253,253]&#45;&gt;Agda.Syntax.Position.Range\n@[253,253] -->
<g id="edge3" class="edge">
<title>Agda.Syntax.Position.Range\n@[253,253]&#45;&gt;Agda.Syntax.Position.Range\n@[253,253]</title>
<path fill="none" stroke="black" d="M375.36,-190.25C386.14,-187.85 393,-183.85 393,-178.25 393,-174.75 390.32,-171.88 385.68,-169.63"/>
<polygon fill="black" stroke="black" points="386.95,-166.03 376.36,-166.25 384.78,-172.69 386.95,-166.03"/>
</g>
<!-- Agda.Syntax.Position.SrcFile\n@[143,143] -->
<g id="node4" class="node">
<title>Agda.Syntax.Position.SrcFile\n@[143,143]</title>
<polygon fill="#fbb4ae" stroke="black" points="378,-121 155,-121 155,-78.5 378,-78.5 378,-121"/>
<text text-anchor="middle" x="266.5" y="-103.7" font-family="Times,serif" font-size="14.00">Agda.Syntax.Position.SrcFile</text>
<text text-anchor="middle" x="266.5" y="-86.45" font-family="Times,serif" font-size="14.00">@[143,143]</text>
</g>
<!-- Agda.Syntax.Position.Range\n@[253,253]&#45;&gt;Agda.Syntax.Position.SrcFile\n@[143,143] -->
<g id="edge4" class="edge">
<title>Agda.Syntax.Position.Range\n@[253,253]&#45;&gt;Agda.Syntax.Position.SrcFile\n@[143,143]</title>
<path fill="none" stroke="black" d="M266.5,-156.75C266.5,-149.2 266.5,-140.47 266.5,-132.18"/>
<polygon fill="black" stroke="black" points="270,-132.31 266.5,-122.31 263,-132.31 270,-132.31"/>
</g>
<!-- Agda.Syntax.Position.RangeFile\n@[147,164] -->
<g id="node3" class="node">
<title>Agda.Syntax.Position.RangeFile\n@[147,164]</title>
<polygon fill="#fbb4ae" stroke="black" points="388.5,-42.5 144.5,-42.5 144.5,0 388.5,0 388.5,-42.5"/>
<text text-anchor="middle" x="266.5" y="-25.2" font-family="Times,serif" font-size="14.00">Agda.Syntax.Position.RangeFile</text>
<text text-anchor="middle" x="266.5" y="-7.95" font-family="Times,serif" font-size="14.00">@[147,164]</text>
</g>
<!-- Agda.Syntax.Position.RangeFile\n@[147,164]&#45;&gt;Agda.Syntax.Position.RangeFile\n@[147,163] -->
<g id="edge5" class="edge">
<title>Agda.Syntax.Position.RangeFile\n@[147,164]&#45;&gt;Agda.Syntax.Position.RangeFile\n@[147,163]</title>
<path fill="none" stroke="black" d="M388.99,-35.17C538.74,-54.44 772.5,-97.32 772.5,-177.25 772.5,-269.03 772.5,-269.03 772.5,-269.03 772.5,-362.44 675.12,-406.74 580.55,-427.72"/>
<polygon fill="black" stroke="black" points="579.98,-424.48 570.93,-429.99 581.44,-431.33 579.98,-424.48"/>
</g>
<!-- Agda.Syntax.Position.RangeFile\n@[147,164]&#45;&gt;Agda.Syntax.Position.RangeFile\n@[147,164] -->
<g id="edge6" class="edge">
<title>Agda.Syntax.Position.RangeFile\n@[147,164]&#45;&gt;Agda.Syntax.Position.RangeFile\n@[147,164]</title>
<path fill="none" stroke="black" d="M388.9,-32.84C399.72,-30.4 406.5,-26.54 406.5,-21.25 406.5,-17.94 403.85,-15.19 399.22,-13"/>
<polygon fill="black" stroke="black" points="400.49,-9.41 389.9,-9.66 398.33,-16.07 400.49,-9.41"/>
</g>
<!-- Agda.Syntax.Position.RangeFile\n@[147,164]&#45;&gt;Agda.Syntax.TopLevelModuleName.TopLevelModuleName\n@[141,146] -->
<g id="edge7" class="edge">
<title>Agda.Syntax.Position.RangeFile\n@[147,164]&#45;&gt;Agda.Syntax.TopLevelModuleName.TopLevelModuleName\n@[141,146]</title>
<path fill="none" stroke="black" d="M206.33,-42.97C185.94,-51.85 163.93,-63.66 146.5,-78.5 82.21,-133.25 64.38,-154.81 39.5,-235.5 30.98,-263.13 22.43,-277.22 39.5,-300.56 49.03,-313.58 61.59,-323.66 75.64,-331.45"/>
<polygon fill="black" stroke="black" points="73.57,-334.83 84.07,-336.25 76.75,-328.59 73.57,-334.83"/>
</g>
<!-- Agda.Syntax.Position.SrcFile\n@[143,143]&#45;&gt;Agda.Syntax.Position.RangeFile\n@[147,164] -->
<g id="edge8" class="edge">
<title>Agda.Syntax.Position.SrcFile\n@[143,143]&#45;&gt;Agda.Syntax.Position.RangeFile\n@[147,164]</title>
<path fill="none" stroke="black" d="M266.5,-78.25C266.5,-70.7 266.5,-61.97 266.5,-53.68"/>
<polygon fill="black" stroke="black" points="270,-53.81 266.5,-43.81 263,-53.81 270,-53.81"/>
</g>
<!-- Agda.Syntax.Position.SrcFile\n@[143,143]&#45;&gt;Agda.Syntax.Position.SrcFile\n@[143,143] -->
<g id="edge9" class="edge">
<title>Agda.Syntax.Position.SrcFile\n@[143,143]&#45;&gt;Agda.Syntax.Position.SrcFile\n@[143,143]</title>
<path fill="none" stroke="black" d="M378.39,-111.65C389.17,-109.24 396,-105.27 396,-99.75 396,-96.3 393.33,-93.46 388.7,-91.22"/>
<polygon fill="black" stroke="black" points="389.99,-87.63 379.39,-87.85 387.81,-94.28 389.99,-87.63"/>
</g>
<!-- Agda.Syntax.TopLevelModuleName.TopLevelModuleName\n@[141,145] -->
<g id="node5" class="node">
<title>Agda.Syntax.TopLevelModuleName.TopLevelModuleName\n@[141,145]</title>
<polygon fill="#b3cde3" stroke="black" points="726.9,-254.55 726.9,-281.5 532.77,-300.56 258.23,-300.56 64.1,-281.5 64.1,-254.55 258.23,-235.5 532.77,-235.5 726.9,-254.55"/>
<text text-anchor="middle" x="395.5" y="-271.98" font-family="Times,serif" font-size="14.00">Agda.Syntax.TopLevelModuleName.TopLevelModuleName</text>
<text text-anchor="middle" x="395.5" y="-254.73" font-family="Times,serif" font-size="14.00">@[141,145]</text>
</g>
<!-- Agda.Syntax.TopLevelModuleName.TopLevelModuleName\n@[141,145]&#45;&gt;Agda.Syntax.Position.Range\n@[253,253] -->
<g id="edge10" class="edge">
<title>Agda.Syntax.TopLevelModuleName.TopLevelModuleName\n@[141,145]&#45;&gt;Agda.Syntax.Position.Range\n@[253,253]</title>
<path fill="none" stroke="black" d="M348.56,-235.09C334.52,-225.53 319.26,-215.15 305.76,-205.97"/>
<polygon fill="black" stroke="black" points="307.97,-202.56 297.73,-199.82 304.03,-208.34 307.97,-202.56"/>
</g>
<!-- Agda.Syntax.TopLevelModuleName.TopLevelModuleName\n@[141,145]&#45;&gt;Agda.Syntax.TopLevelModuleName.TopLevelModuleName\n@[141,145] -->
<g id="edge11" class="edge">
<title>Agda.Syntax.TopLevelModuleName.TopLevelModuleName\n@[141,145]&#45;&gt;Agda.Syntax.TopLevelModuleName.TopLevelModuleName\n@[141,145]</title>
<path fill="none" stroke="black" d="M727.24,-277.35C738.48,-274.86 744.9,-271.75 744.9,-268.03 744.9,-265.7 742.4,-263.61 737.77,-261.77"/>
<polygon fill="black" stroke="black" points="738.82,-258.14 728.24,-258.71 736.87,-264.86 738.82,-258.14"/>
</g>
<!-- Agda.Syntax.TopLevelModuleName.TopLevelModuleName\n@[141,146]&#45;&gt;Agda.Syntax.Position.Range\n@[253,253] -->
<g id="edge12" class="edge">
<title>Agda.Syntax.TopLevelModuleName.TopLevelModuleName\n@[141,146]&#45;&gt;Agda.Syntax.Position.Range\n@[253,253]</title>
<path fill="none" stroke="black" d="M100.78,-336.18C82.99,-327.95 66.81,-316.49 55.5,-300.56 38.76,-276.98 37.88,-258.43 55.5,-235.5 67.77,-219.53 106.2,-207.13 146.97,-198.08"/>
<polygon fill="black" stroke="black" points="147.6,-201.31 156.65,-195.79 146.14,-194.46 147.6,-201.31"/>
</g>
<!-- Agda.Syntax.TopLevelModuleName.TopLevelModuleName\n@[141,146]&#45;&gt;Agda.Syntax.TopLevelModuleName.TopLevelModuleName\n@[141,145] -->
<g id="edge13" class="edge">
<title>Agda.Syntax.TopLevelModuleName.TopLevelModuleName\n@[141,146]&#45;&gt;Agda.Syntax.TopLevelModuleName.TopLevelModuleName\n@[141,145]</title>
<path fill="none" stroke="black" d="M258.47,-336.23C277.02,-327.13 299.4,-316.15 320.66,-305.73"/>
<polygon fill="black" stroke="black" points="321.89,-308.53 329.32,-300.99 318.8,-302.25 321.89,-308.53"/>
</g>
<!-- Agda.Syntax.TopLevelModuleName.TopLevelModuleName\n@[141,146]&#45;&gt;Agda.Syntax.TopLevelModuleName.TopLevelModuleName\n@[141,146] -->
<g id="edge14" class="edge">
<title>Agda.Syntax.TopLevelModuleName.TopLevelModuleName\n@[141,146]&#45;&gt;Agda.Syntax.TopLevelModuleName.TopLevelModuleName\n@[141,146]</title>
<path fill="none" stroke="black" d="M433.3,-368.78C444.43,-366.07 451,-362.41 451,-357.81 451,-354.86 448.3,-352.3 443.44,-350.12"/>
<polygon fill="black" stroke="black" points="444.89,-346.59 434.3,-346.83 442.73,-353.25 444.89,-346.59"/>
</g>
</g>
</svg>
