<?xml version="1.0" encoding="UTF-8" standalone="no"?>
<!DOCTYPE svg PUBLIC "-//W3C//DTD SVG 1.1//EN"
 "http://www.w3.org/Graphics/SVG/1.1/DTD/svg11.dtd">
<!-- Generated by graphviz version 8.1.0 (0)
 -->
<!-- Pages: 1 -->
<svg width="4366pt" height="741pt"
 viewBox="0.00 0.00 4365.82 740.83" xmlns="http://www.w3.org/2000/svg" xmlns:xlink="http://www.w3.org/1999/xlink">
<g id="graph0" class="graph" transform="scale(1 1) rotate(0) translate(4 736.83)">
<polygon fill="white" stroke="none" points="-4,4 -4,-736.83 4361.82,-736.83 4361.82,4 -4,4"/>
<!-- Agda.Syntax.Parser.Comments.nestedComment\n@[36,51] -->
<g id="node1" class="node">
<title>Agda.Syntax.Parser.Comments.nestedComment\n@[36,51]</title>
<ellipse fill="#fbb4ae" stroke="black" cx="2447" cy="-702.78" rx="253.14" ry="30.05"/>
<text text-anchor="middle" x="2447" y="-706.73" font-family="Times,serif" font-size="14.00">Agda.Syntax.Parser.Comments.nestedComment</text>
<text text-anchor="middle" x="2447" y="-689.48" font-family="Times,serif" font-size="14.00">@[36,51]</text>
</g>
<!-- Agda.Syntax.Parser.LexActions.lexToken\n@[74,89] -->
<g id="node4" class="node">
<title>Agda.Syntax.Parser.LexActions.lexToken\n@[74,89]</title>
<ellipse fill="#ccebc5" stroke="black" cx="2097" cy="-606.68" rx="216.02" ry="30.05"/>
<text text-anchor="middle" x="2097" y="-610.63" font-family="Times,serif" font-size="14.00">Agda.Syntax.Parser.LexActions.lexToken</text>
<text text-anchor="middle" x="2097" y="-593.38" font-family="Times,serif" font-size="14.00">@[74,89]</text>
</g>
<!-- Agda.Syntax.Parser.Comments.nestedComment\n@[36,51]&#45;&gt;Agda.Syntax.Parser.LexActions.lexToken\n@[74,89] -->
<g id="edge1" class="edge">
<title>Agda.Syntax.Parser.Comments.nestedComment\n@[36,51]&#45;&gt;Agda.Syntax.Parser.LexActions.lexToken\n@[74,89]</title>
<path fill="none" stroke="black" d="M2346.7,-674.81C2302.38,-662.9 2250.19,-648.87 2205.02,-636.72"/>
<polygon fill="black" stroke="black" points="2206.16,-633.13 2195.59,-633.92 2204.34,-639.89 2206.16,-633.13"/>
</g>
<!-- Agda.Syntax.Parser.Layout.offsideRule\n@[142,151] -->
<g id="node2" class="node">
<title>Agda.Syntax.Parser.Layout.offsideRule\n@[142,151]</title>
<ellipse fill="#b3cde3" stroke="black" cx="760" cy="-126.16" rx="207.01" ry="30.05"/>
<text text-anchor="middle" x="760" y="-130.11" font-family="Times,serif" font-size="14.00">Agda.Syntax.Parser.Layout.offsideRule</text>
<text text-anchor="middle" x="760" y="-112.86" font-family="Times,serif" font-size="14.00">@[142,151]</text>
</g>
<!-- Agda.Syntax.Parser.Layout.offsideRule\n@[142,151]&#45;&gt;Agda.Syntax.Parser.LexActions.lexToken\n@[74,89] -->
<g id="edge2" class="edge">
<title>Agda.Syntax.Parser.Layout.offsideRule\n@[142,151]&#45;&gt;Agda.Syntax.Parser.LexActions.lexToken\n@[74,89]</title>
<path fill="none" stroke="black" d="M558.51,-133.3C363.78,-141.22 93.03,-158.23 57,-192.21 16.07,-230.81 38,-261.1 38,-317.36 38,-415.47 38,-415.47 38,-415.47 38,-507.22 1351.49,-573.75 1880.29,-596.81"/>
<polygon fill="black" stroke="black" points="1879.96,-600.34 1890.1,-597.28 1880.26,-593.35 1879.96,-600.34"/>
</g>
<!-- Agda.Syntax.Parser.LexActions.begin\n@[162,162] -->
<g id="node3" class="node">
<title>Agda.Syntax.Parser.LexActions.begin\n@[162,162]</title>
<ellipse fill="#ccebc5" stroke="black" cx="1185" cy="-126.16" rx="199.58" ry="30.05"/>
<text text-anchor="middle" x="1185" y="-130.11" font-family="Times,serif" font-size="14.00">Agda.Syntax.Parser.LexActions.begin</text>
<text text-anchor="middle" x="1185" y="-112.86" font-family="Times,serif" font-size="14.00">@[162,162]</text>
</g>
<!-- Agda.Syntax.Parser.LexActions.revisit\n@[154,154] -->
<g id="node5" class="node">
<title>Agda.Syntax.Parser.LexActions.revisit\n@[154,154]</title>
<ellipse fill="#ccebc5" stroke="black" cx="689" cy="-30.05" rx="203.82" ry="30.05"/>
<text text-anchor="middle" x="689" y="-34" font-family="Times,serif" font-size="14.00">Agda.Syntax.Parser.LexActions.revisit</text>
<text text-anchor="middle" x="689" y="-16.75" font-family="Times,serif" font-size="14.00">@[154,154]</text>
</g>
<!-- Agda.Syntax.Parser.LexActions.begin\n@[162,162]&#45;&gt;Agda.Syntax.Parser.LexActions.revisit\n@[154,154] -->
<g id="edge3" class="edge">
<title>Agda.Syntax.Parser.LexActions.begin\n@[162,162]&#45;&gt;Agda.Syntax.Parser.LexActions.revisit\n@[154,154]</title>
<path fill="none" stroke="black" d="M1063.03,-102.02C990.02,-88.16 897.17,-70.55 822.24,-56.33"/>
<polygon fill="black" stroke="black" points="823.27,-52.77 812.79,-54.35 821.96,-59.65 823.27,-52.77"/>
</g>
<!-- Agda.Syntax.Parser.LexActions.skipTo\n@[64,66] -->
<g id="node7" class="node">
<title>Agda.Syntax.Parser.LexActions.skipTo\n@[64,66]</title>
<ellipse fill="#ccebc5" stroke="black" cx="4154" cy="-30.05" rx="203.82" ry="30.05"/>
<text text-anchor="middle" x="4154" y="-34" font-family="Times,serif" font-size="14.00">Agda.Syntax.Parser.LexActions.skipTo</text>
<text text-anchor="middle" x="4154" y="-16.75" font-family="Times,serif" font-size="14.00">@[64,66]</text>
</g>
<!-- Agda.Syntax.Parser.LexActions.lexToken\n@[74,89]&#45;&gt;Agda.Syntax.Parser.LexActions.skipTo\n@[64,66] -->
<g id="edge4" class="edge">
<title>Agda.Syntax.Parser.LexActions.lexToken\n@[74,89]&#45;&gt;Agda.Syntax.Parser.LexActions.skipTo\n@[64,66]</title>
<path fill="none" stroke="black" d="M2302.16,-597.1C2821.12,-574.3 4145,-507.54 4145,-415.47 4145,-415.47 4145,-415.47 4145,-221.26 4145,-169.41 4145,-109.62 4147.08,-71.13"/>
<polygon fill="black" stroke="black" points="4150.62,-71.58 4147.75,-61.38 4143.63,-71.14 4150.62,-71.58"/>
</g>
<!-- Agda.Syntax.Parser.Lexer.alexScanUser\n@[1582,1607] -->
<g id="node10" class="node">
<title>Agda.Syntax.Parser.Lexer.alexScanUser\n@[1582,1607]</title>
<ellipse fill="#decbe4" stroke="black" cx="1766" cy="-510.57" rx="213.37" ry="30.05"/>
<text text-anchor="middle" x="1766" y="-514.52" font-family="Times,serif" font-size="14.00">Agda.Syntax.Parser.Lexer.alexScanUser</text>
<text text-anchor="middle" x="1766" y="-497.27" font-family="Times,serif" font-size="14.00">@[1582,1607]</text>
</g>
<!-- Agda.Syntax.Parser.LexActions.lexToken\n@[74,89]&#45;&gt;Agda.Syntax.Parser.Lexer.alexScanUser\n@[1582,1607] -->
<g id="edge5" class="edge">
<title>Agda.Syntax.Parser.LexActions.lexToken\n@[74,89]&#45;&gt;Agda.Syntax.Parser.Lexer.alexScanUser\n@[1582,1607]</title>
<path fill="none" stroke="black" d="M2003.92,-579.21C1962.05,-567.31 1912.48,-553.22 1869.46,-540.99"/>
<polygon fill="black" stroke="black" points="1870.53,-537.37 1859.96,-538 1868.62,-544.1 1870.53,-537.37"/>
</g>
<!-- Agda.Syntax.Parser.LexActions.revisit\n@[154,154]&#45;&gt;Agda.Syntax.Parser.LexActions.lexToken\n@[74,89] -->
<g id="edge6" class="edge">
<title>Agda.Syntax.Parser.LexActions.revisit\n@[154,154]&#45;&gt;Agda.Syntax.Parser.LexActions.lexToken\n@[74,89]</title>
<path fill="none" stroke="black" d="M511.12,-44.99C306.97,-66.01 0,-115.24 0,-221.26 0,-415.47 0,-415.47 0,-415.47 0,-555.85 152.35,-513.07 290,-540.62 585.38,-599.75 1453.49,-606.79 1869.56,-606.6"/>
<polygon fill="black" stroke="black" points="1869.53,-610.1 1879.52,-606.6 1869.52,-603.1 1869.53,-610.1"/>
</g>
<!-- Agda.Syntax.Parser.LexActions.skip\n@[158,158] -->
<g id="node6" class="node">
<title>Agda.Syntax.Parser.LexActions.skip\n@[158,158]</title>
<ellipse fill="#ccebc5" stroke="black" cx="2636" cy="-126.16" rx="192.16" ry="30.05"/>
<text text-anchor="middle" x="2636" y="-130.11" font-family="Times,serif" font-size="14.00">Agda.Syntax.Parser.LexActions.skip</text>
<text text-anchor="middle" x="2636" y="-112.86" font-family="Times,serif" font-size="14.00">@[158,158]</text>
</g>
<!-- Agda.Syntax.Parser.LexActions.skip\n@[158,158]&#45;&gt;Agda.Syntax.Parser.LexActions.skipTo\n@[64,66] -->
<g id="edge7" class="edge">
<title>Agda.Syntax.Parser.LexActions.skip\n@[158,158]&#45;&gt;Agda.Syntax.Parser.LexActions.skipTo\n@[64,66]</title>
<path fill="none" stroke="black" d="M2813.1,-114.18C3098.75,-96.47 3659.21,-61.73 3957.05,-43.26"/>
<polygon fill="black" stroke="black" points="3957.2,-46.7 3966.97,-42.58 3956.77,-39.71 3957.2,-46.7"/>
</g>
<!-- Agda.Syntax.Parser.LexActions.skipTo\n@[64,66]&#45;&gt;Agda.Syntax.Parser.LexActions.lexToken\n@[74,89] -->
<g id="edge8" class="edge">
<title>Agda.Syntax.Parser.LexActions.skipTo\n@[64,66]&#45;&gt;Agda.Syntax.Parser.LexActions.lexToken\n@[74,89]</title>
<path fill="none" stroke="black" d="M4160.25,-60.38C4163,-97.74 4163,-164.3 4163,-221.26 4163,-415.47 4163,-415.47 4163,-415.47 4163,-507.35 2844.41,-574.03 2314.04,-596.97"/>
<polygon fill="black" stroke="black" points="2314.04,-593.51 2304.2,-597.43 2314.35,-600.5 2314.04,-593.51"/>
</g>
<!-- Agda.Syntax.Parser.Lexer.alexRightContext\n@[1696,1699] -->
<g id="node8" class="node">
<title>Agda.Syntax.Parser.Lexer.alexRightContext\n@[1696,1699]</title>
<ellipse fill="#decbe4" stroke="black" cx="694" cy="-222.26" rx="231.93" ry="30.05"/>
<text text-anchor="middle" x="694" y="-226.21" font-family="Times,serif" font-size="14.00">Agda.Syntax.Parser.Lexer.alexRightContext</text>
<text text-anchor="middle" x="694" y="-208.96" font-family="Times,serif" font-size="14.00">@[1696,1699]</text>
</g>
<!-- Agda.Syntax.Parser.Lexer.alex_scan_tkn\n@[1613,1663] -->
<g id="node19" class="node">
<title>Agda.Syntax.Parser.Lexer.alex_scan_tkn\n@[1613,1663]</title>
<ellipse fill="#decbe4" stroke="black" cx="1507" cy="-414.47" rx="213.37" ry="30.05"/>
<text text-anchor="middle" x="1507" y="-418.42" font-family="Times,serif" font-size="14.00">Agda.Syntax.Parser.Lexer.alex_scan_tkn</text>
<text text-anchor="middle" x="1507" y="-401.17" font-family="Times,serif" font-size="14.00">@[1613,1663]</text>
</g>
<!-- Agda.Syntax.Parser.Lexer.alexRightContext\n@[1696,1699]&#45;&gt;Agda.Syntax.Parser.Lexer.alex_scan_tkn\n@[1613,1663] -->
<g id="edge9" class="edge">
<title>Agda.Syntax.Parser.Lexer.alexRightContext\n@[1696,1699]&#45;&gt;Agda.Syntax.Parser.Lexer.alex_scan_tkn\n@[1613,1663]</title>
<path fill="none" stroke="black" d="M804.36,-249.08C957.02,-284.8 1231.51,-349.02 1388.41,-385.72"/>
<polygon fill="black" stroke="black" points="1387.51,-389.34 1398.04,-388.21 1389.1,-382.52 1387.51,-389.34"/>
</g>
<!-- Agda.Syntax.Parser.Lexer.alexScan\n@[1579,1580] -->
<g id="node9" class="node">
<title>Agda.Syntax.Parser.Lexer.alexScan\n@[1579,1580]</title>
<ellipse fill="#decbe4" stroke="black" cx="255" cy="-222.26" rx="188.97" ry="30.05"/>
<text text-anchor="middle" x="255" y="-226.21" font-family="Times,serif" font-size="14.00">Agda.Syntax.Parser.Lexer.alexScan</text>
<text text-anchor="middle" x="255" y="-208.96" font-family="Times,serif" font-size="14.00">@[1579,1580]</text>
</g>
<!-- Agda.Syntax.Parser.Lexer.alexScan\n@[1579,1580]&#45;&gt;Agda.Syntax.Parser.Lexer.alexScanUser\n@[1582,1607] -->
<g id="edge10" class="edge">
<title>Agda.Syntax.Parser.Lexer.alexScan\n@[1579,1580]&#45;&gt;Agda.Syntax.Parser.Lexer.alexScanUser\n@[1582,1607]</title>
<path fill="none" stroke="black" d="M357.19,-247.95C541.65,-291.92 942.91,-384.74 1285,-444.52 1386.61,-462.28 1501.01,-477.93 1592.75,-489.42"/>
<polygon fill="black" stroke="black" points="1592.18,-493 1602.54,-490.77 1593.05,-486.06 1592.18,-493"/>
</g>
<!-- Agda.Syntax.Parser.Lexer.alex_actions\n@[697,1272] -->
<g id="node18" class="node">
<title>Agda.Syntax.Parser.Lexer.alex_actions\n@[697,1272]</title>
<ellipse fill="#decbe4" stroke="black" cx="2176" cy="-318.36" rx="205.41" ry="30.05"/>
<text text-anchor="middle" x="2176" y="-322.31" font-family="Times,serif" font-size="14.00">Agda.Syntax.Parser.Lexer.alex_actions</text>
<text text-anchor="middle" x="2176" y="-305.06" font-family="Times,serif" font-size="14.00">@[697,1272]</text>
</g>
<!-- Agda.Syntax.Parser.Lexer.alexScanUser\n@[1582,1607]&#45;&gt;Agda.Syntax.Parser.Lexer.alex_actions\n@[697,1272] -->
<g id="edge11" class="edge">
<title>Agda.Syntax.Parser.Lexer.alexScanUser\n@[1582,1607]&#45;&gt;Agda.Syntax.Parser.Lexer.alex_actions\n@[697,1272]</title>
<path fill="none" stroke="black" d="M1826.94,-481.3C1901.38,-446.76 2027.08,-388.45 2105.59,-352.03"/>
<polygon fill="black" stroke="black" points="2106.8,-354.86 2114.4,-347.48 2103.85,-348.51 2106.8,-354.86"/>
</g>
<!-- Agda.Syntax.Parser.Lexer.alexScanUser\n@[1582,1607]&#45;&gt;Agda.Syntax.Parser.Lexer.alex_scan_tkn\n@[1613,1663] -->
<g id="edge12" class="edge">
<title>Agda.Syntax.Parser.Lexer.alexScanUser\n@[1582,1607]&#45;&gt;Agda.Syntax.Parser.Lexer.alex_scan_tkn\n@[1613,1663]</title>
<path fill="none" stroke="black" d="M1690.39,-482.1C1659.81,-470.99 1624.34,-458.1 1592.8,-446.64"/>
<polygon fill="black" stroke="black" points="1594.3,-443.1 1583.7,-442.97 1591.91,-449.68 1594.3,-443.1"/>
</g>
<!-- Agda.Syntax.Parser.Lexer.alex_accept\n@[74,695] -->
<g id="node11" class="node">
<title>Agda.Syntax.Parser.Lexer.alex_accept\n@[74,695]</title>
<ellipse fill="#decbe4" stroke="black" cx="1743" cy="-318.36" rx="202.23" ry="30.05"/>
<text text-anchor="middle" x="1743" y="-322.31" font-family="Times,serif" font-size="14.00">Agda.Syntax.Parser.Lexer.alex_accept</text>
<text text-anchor="middle" x="1743" y="-305.06" font-family="Times,serif" font-size="14.00">@[74,695]</text>
</g>
<!-- Agda.Syntax.Parser.Lexer.alex_accept\n@[74,695]&#45;&gt;Agda.Syntax.Parser.Comments.nestedComment\n@[36,51] -->
<g id="edge13" class="edge">
<title>Agda.Syntax.Parser.Lexer.alex_accept\n@[74,695]&#45;&gt;Agda.Syntax.Parser.Comments.nestedComment\n@[36,51]</title>
<path fill="none" stroke="black" d="M1829.38,-345.92C1947.52,-384.77 2162.94,-464.82 2322,-576.62 2357.75,-601.75 2392.37,-637.61 2416.08,-664.51"/>
<polygon fill="black" stroke="black" points="2413.87,-666.3 2423.07,-671.54 2419.15,-661.7 2413.87,-666.3"/>
</g>
<!-- Agda.Syntax.Parser.Lexer.alex_accept\n@[74,695]&#45;&gt;Agda.Syntax.Parser.Layout.offsideRule\n@[142,151] -->
<g id="edge14" class="edge">
<title>Agda.Syntax.Parser.Lexer.alex_accept\n@[74,695]&#45;&gt;Agda.Syntax.Parser.Layout.offsideRule\n@[142,151]</title>
<path fill="none" stroke="black" d="M1541.33,-315.26C1353.46,-310.54 1088.69,-296.02 995,-252.31 960.79,-236.35 966.76,-212.61 935,-192.21 913.07,-178.12 887.65,-166.46 863.09,-157.1"/>
<polygon fill="black" stroke="black" points="864.6,-153.55 854,-153.36 862.16,-160.12 864.6,-153.55"/>
</g>
<!-- Agda.Syntax.Parser.Lexer.alex_accept\n@[74,695]&#45;&gt;Agda.Syntax.Parser.LexActions.begin\n@[162,162] -->
<g id="edge15" class="edge">
<title>Agda.Syntax.Parser.Lexer.alex_accept\n@[74,695]&#45;&gt;Agda.Syntax.Parser.LexActions.begin\n@[162,162]</title>
<path fill="none" stroke="black" d="M1543.35,-313.22C1339.01,-306.87 1046.45,-291.05 1011,-252.31 992.97,-232.61 995.77,-214.16 1011,-192.21 1022.01,-176.33 1037.4,-164.33 1054.51,-155.25"/>
<polygon fill="black" stroke="black" points="1055.74,-158.05 1063.18,-150.5 1052.66,-151.77 1055.74,-158.05"/>
</g>
<!-- Agda.Syntax.Parser.Lexer.alex_accept\n@[74,695]&#45;&gt;Agda.Syntax.Parser.LexActions.lexToken\n@[74,89] -->
<g id="edge16" class="edge">
<title>Agda.Syntax.Parser.Lexer.alex_accept\n@[74,695]&#45;&gt;Agda.Syntax.Parser.LexActions.lexToken\n@[74,89]</title>
<path fill="none" stroke="black" d="M1794.64,-347.75C1846.29,-377.37 1926.65,-426.93 1988,-480.52 2018.22,-506.92 2047.81,-541.63 2068.52,-567.8"/>
<polygon fill="black" stroke="black" points="2066.27,-569.61 2075.19,-575.33 2071.79,-565.29 2066.27,-569.61"/>
</g>
<!-- Agda.Syntax.Parser.Lexer.alex_accept\n@[74,695]&#45;&gt;Agda.Syntax.Parser.LexActions.skip\n@[158,158] -->
<g id="edge17" class="edge">
<title>Agda.Syntax.Parser.Lexer.alex_accept\n@[74,695]&#45;&gt;Agda.Syntax.Parser.LexActions.skip\n@[158,158]</title>
<path fill="none" stroke="black" d="M1608.32,-295.62C1561.47,-285.1 1517.07,-270.7 1503,-252.31 1486.77,-231.1 1484.66,-211.63 1503,-192.21 1534.46,-158.89 2118.77,-139.64 2435.62,-131.61"/>
<polygon fill="black" stroke="black" points="2435.41,-135.09 2445.31,-131.34 2435.23,-128.09 2435.41,-135.09"/>
</g>
<!-- Agda.Syntax.Parser.Lexer.alex_accept\n@[74,695]&#45;&gt;Agda.Syntax.Parser.Lexer.alexRightContext\n@[1696,1699] -->
<g id="edge18" class="edge">
<title>Agda.Syntax.Parser.Lexer.alex_accept\n@[74,695]&#45;&gt;Agda.Syntax.Parser.Lexer.alexRightContext\n@[1696,1699]</title>
<path fill="none" stroke="black" d="M1562.24,-304.63C1399.38,-292.7 1153.47,-273.56 940,-252.31 917.46,-250.07 893.77,-247.52 870.37,-244.88"/>
<polygon fill="black" stroke="black" points="870.98,-241.31 860.65,-243.67 870.19,-248.27 870.98,-241.31"/>
</g>
<!-- Agda.Syntax.Parser.Lexer.alex_accept\n@[74,695]&#45;&gt;Agda.Syntax.Parser.Lexer.alexScan\n@[1579,1580] -->
<g id="edge19" class="edge">
<title>Agda.Syntax.Parser.Lexer.alex_accept\n@[74,695]&#45;&gt;Agda.Syntax.Parser.Lexer.alexScan\n@[1579,1580]</title>
<path fill="none" stroke="black" d="M1543.4,-313.19C1289.52,-306.54 837.82,-290.16 453,-252.31 434.78,-250.52 415.67,-248.23 396.81,-245.73"/>
<polygon fill="black" stroke="black" points="397.43,-242.15 387.05,-244.28 396.49,-249.09 397.43,-242.15"/>
</g>
<!-- Agda.Syntax.Parser.Lexer.alex_accept\n@[74,695]&#45;&gt;Agda.Syntax.Parser.Lexer.alexScanUser\n@[1582,1607] -->
<g id="edge20" class="edge">
<title>Agda.Syntax.Parser.Lexer.alex_accept\n@[74,695]&#45;&gt;Agda.Syntax.Parser.Lexer.alexScanUser\n@[1582,1607]</title>
<path fill="none" stroke="black" d="M1746.55,-348.7C1750.47,-381.11 1756.8,-433.48 1761.17,-469.62"/>
<polygon fill="black" stroke="black" points="1757.78,-469.76 1762.46,-479.27 1764.73,-468.92 1757.78,-469.76"/>
</g>
<!-- Agda.Syntax.Parser.Lexer.alex_action_32\n@[361,361] -->
<g id="node12" class="node">
<title>Agda.Syntax.Parser.Lexer.alex_action_32\n@[361,361]</title>
<ellipse fill="#decbe4" stroke="black" cx="3899" cy="-222.26" rx="217.61" ry="30.05"/>
<text text-anchor="middle" x="3899" y="-226.21" font-family="Times,serif" font-size="14.00">Agda.Syntax.Parser.Lexer.alex_action_32</text>
<text text-anchor="middle" x="3899" y="-208.96" font-family="Times,serif" font-size="14.00">@[361,361]</text>
</g>
<!-- Agda.Syntax.Parser.Lexer.alex_accept\n@[74,695]&#45;&gt;Agda.Syntax.Parser.Lexer.alex_action_32\n@[361,361] -->
<g id="edge21" class="edge">
<title>Agda.Syntax.Parser.Lexer.alex_accept\n@[74,695]&#45;&gt;Agda.Syntax.Parser.Lexer.alex_action_32\n@[361,361]</title>
<path fill="none" stroke="black" d="M1883.54,-296.38C1909.57,-293.16 1936.57,-290.26 1962,-288.31 2719.95,-230.24 2913.92,-308.64 3672,-252.31 3693.89,-250.69 3716.91,-248.41 3739.54,-245.84"/>
<polygon fill="black" stroke="black" points="3739.73,-249.22 3749.26,-244.59 3738.92,-242.27 3739.73,-249.22"/>
</g>
<!-- Agda.Syntax.Parser.Lexer.alex_action_36\n@[365,365] -->
<g id="node13" class="node">
<title>Agda.Syntax.Parser.Lexer.alex_action_36\n@[365,365]</title>
<ellipse fill="#decbe4" stroke="black" cx="2636" cy="-222.26" rx="217.61" ry="30.05"/>
<text text-anchor="middle" x="2636" y="-226.21" font-family="Times,serif" font-size="14.00">Agda.Syntax.Parser.Lexer.alex_action_36</text>
<text text-anchor="middle" x="2636" y="-208.96" font-family="Times,serif" font-size="14.00">@[365,365]</text>
</g>
<!-- Agda.Syntax.Parser.Lexer.alex_accept\n@[74,695]&#45;&gt;Agda.Syntax.Parser.Lexer.alex_action_36\n@[365,365] -->
<g id="edge22" class="edge">
<title>Agda.Syntax.Parser.Lexer.alex_accept\n@[74,695]&#45;&gt;Agda.Syntax.Parser.Lexer.alex_action_36\n@[365,365]</title>
<path fill="none" stroke="black" d="M1888.06,-297.05C1912.71,-293.9 1938.07,-290.86 1962,-288.31 2160.63,-267.17 2211.33,-273.05 2410,-252.31 2430.02,-250.22 2451.01,-247.82 2471.79,-245.3"/>
<polygon fill="black" stroke="black" points="2472.13,-248.66 2481.63,-243.98 2471.28,-241.71 2472.13,-248.66"/>
</g>
<!-- Agda.Syntax.Parser.Lexer.alex_action_37\n@[366,366] -->
<g id="node14" class="node">
<title>Agda.Syntax.Parser.Lexer.alex_action_37\n@[366,366]</title>
<ellipse fill="#decbe4" stroke="black" cx="1730" cy="-222.26" rx="217.61" ry="30.05"/>
<text text-anchor="middle" x="1730" y="-226.21" font-family="Times,serif" font-size="14.00">Agda.Syntax.Parser.Lexer.alex_action_37</text>
<text text-anchor="middle" x="1730" y="-208.96" font-family="Times,serif" font-size="14.00">@[366,366]</text>
</g>
<!-- Agda.Syntax.Parser.Lexer.alex_accept\n@[74,695]&#45;&gt;Agda.Syntax.Parser.Lexer.alex_action_37\n@[366,366] -->
<g id="edge23" class="edge">
<title>Agda.Syntax.Parser.Lexer.alex_accept\n@[74,695]&#45;&gt;Agda.Syntax.Parser.Lexer.alex_action_37\n@[366,366]</title>
<path fill="none" stroke="black" d="M1738.92,-287.85C1737.86,-280.14 1736.69,-271.7 1735.56,-263.54"/>
<polygon fill="black" stroke="black" points="1738.9,-263.1 1734.06,-253.67 1731.96,-264.06 1738.9,-263.1"/>
</g>
<!-- Agda.Syntax.Parser.Lexer.alex_action_38\n@[367,367] -->
<g id="node15" class="node">
<title>Agda.Syntax.Parser.Lexer.alex_action_38\n@[367,367]</title>
<ellipse fill="#decbe4" stroke="black" cx="3089" cy="-222.26" rx="217.61" ry="30.05"/>
<text text-anchor="middle" x="3089" y="-226.21" font-family="Times,serif" font-size="14.00">Agda.Syntax.Parser.Lexer.alex_action_38</text>
<text text-anchor="middle" x="3089" y="-208.96" font-family="Times,serif" font-size="14.00">@[367,367]</text>
</g>
<!-- Agda.Syntax.Parser.Lexer.alex_accept\n@[74,695]&#45;&gt;Agda.Syntax.Parser.Lexer.alex_action_38\n@[367,367] -->
<g id="edge24" class="edge">
<title>Agda.Syntax.Parser.Lexer.alex_accept\n@[74,695]&#45;&gt;Agda.Syntax.Parser.Lexer.alex_action_38\n@[367,367]</title>
<path fill="none" stroke="black" d="M1885.04,-296.59C1910.62,-293.4 1937.07,-290.46 1962,-288.31 2361.29,-253.92 2463.65,-285.89 2863,-252.31 2884.17,-250.53 2906.41,-248.22 2928.33,-245.68"/>
<polygon fill="black" stroke="black" points="2928.54,-249.06 2938.06,-244.41 2927.72,-242.11 2928.54,-249.06"/>
</g>
<!-- Agda.Syntax.Parser.Lexer.alex_action_39\n@[368,368] -->
<g id="node16" class="node">
<title>Agda.Syntax.Parser.Lexer.alex_action_39\n@[368,368]</title>
<ellipse fill="#decbe4" stroke="black" cx="1238" cy="-222.26" rx="217.61" ry="30.05"/>
<text text-anchor="middle" x="1238" y="-226.21" font-family="Times,serif" font-size="14.00">Agda.Syntax.Parser.Lexer.alex_action_39</text>
<text text-anchor="middle" x="1238" y="-208.96" font-family="Times,serif" font-size="14.00">@[368,368]</text>
</g>
<!-- Agda.Syntax.Parser.Lexer.alex_accept\n@[74,695]&#45;&gt;Agda.Syntax.Parser.Lexer.alex_action_39\n@[368,368] -->
<g id="edge25" class="edge">
<title>Agda.Syntax.Parser.Lexer.alex_accept\n@[74,695]&#45;&gt;Agda.Syntax.Parser.Lexer.alex_action_39\n@[368,368]</title>
<path fill="none" stroke="black" d="M1618.82,-294.22C1545.18,-280.5 1451.72,-263.08 1375.81,-248.94"/>
<polygon fill="black" stroke="black" points="1376.69,-245.36 1366.22,-246.97 1375.41,-252.24 1376.69,-245.36"/>
</g>
<!-- Agda.Syntax.Parser.Lexer.alex_action_40\n@[369,369] -->
<g id="node17" class="node">
<title>Agda.Syntax.Parser.Lexer.alex_action_40\n@[369,369]</title>
<ellipse fill="#decbe4" stroke="black" cx="2183" cy="-222.26" rx="217.61" ry="30.05"/>
<text text-anchor="middle" x="2183" y="-226.21" font-family="Times,serif" font-size="14.00">Agda.Syntax.Parser.Lexer.alex_action_40</text>
<text text-anchor="middle" x="2183" y="-208.96" font-family="Times,serif" font-size="14.00">@[369,369]</text>
</g>
<!-- Agda.Syntax.Parser.Lexer.alex_accept\n@[74,695]&#45;&gt;Agda.Syntax.Parser.Lexer.alex_action_40\n@[369,369] -->
<g id="edge26" class="edge">
<title>Agda.Syntax.Parser.Lexer.alex_accept\n@[74,695]&#45;&gt;Agda.Syntax.Parser.Lexer.alex_action_40\n@[369,369]</title>
<path fill="none" stroke="black" d="M1856.6,-293.07C1917.86,-279.97 1993.63,-263.76 2056.74,-250.26"/>
<polygon fill="black" stroke="black" points="2057.11,-253.55 2066.15,-248.04 2055.64,-246.71 2057.11,-253.55"/>
</g>
<!-- Agda.Syntax.Parser.Lexer.lexer\n@[314,314] -->
<g id="node20" class="node">
<title>Agda.Syntax.Parser.Lexer.lexer\n@[314,314]</title>
<ellipse fill="#decbe4" stroke="black" cx="3494" cy="-222.26" rx="169.35" ry="30.05"/>
<text text-anchor="middle" x="3494" y="-226.21" font-family="Times,serif" font-size="14.00">Agda.Syntax.Parser.Lexer.lexer</text>
<text text-anchor="middle" x="3494" y="-208.96" font-family="Times,serif" font-size="14.00">@[314,314]</text>
</g>
<!-- Agda.Syntax.Parser.Lexer.alex_accept\n@[74,695]&#45;&gt;Agda.Syntax.Parser.Lexer.lexer\n@[314,314] -->
<g id="edge27" class="edge">
<title>Agda.Syntax.Parser.Lexer.alex_accept\n@[74,695]&#45;&gt;Agda.Syntax.Parser.Lexer.lexer\n@[314,314]</title>
<path fill="none" stroke="black" d="M1883.84,-296.46C1909.78,-293.24 1936.67,-290.32 1962,-288.31 2562.1,-240.66 2716.68,-308.93 3316,-252.31 3332.65,-250.74 3350.1,-248.56 3367.3,-246.09"/>
<polygon fill="black" stroke="black" points="3367.57,-249.44 3376.96,-244.52 3366.55,-242.51 3367.57,-249.44"/>
</g>
<!-- Agda.Syntax.Parser.Lexer.alex_action_32\n@[361,361]&#45;&gt;Agda.Syntax.Parser.Comments.nestedComment\n@[36,51] -->
<g id="edge28" class="edge">
<title>Agda.Syntax.Parser.Lexer.alex_action_32\n@[361,361]&#45;&gt;Agda.Syntax.Parser.Comments.nestedComment\n@[36,51]</title>
<path fill="none" stroke="black" d="M4017.06,-247.94C4101.76,-273.35 4201,-322.54 4201,-413.47 4201,-511.57 4201,-511.57 4201,-511.57 4201,-659.7 3199.44,-692.57 2709.99,-699.79"/>
<polygon fill="black" stroke="black" points="2710.19,-696.31 2700.24,-699.95 2710.29,-703.3 2710.19,-696.31"/>
</g>
<!-- Agda.Syntax.Parser.Lexer.alex_action_36\n@[365,365]&#45;&gt;Agda.Syntax.Parser.LexActions.skip\n@[158,158] -->
<g id="edge29" class="edge">
<title>Agda.Syntax.Parser.Lexer.alex_action_36\n@[365,365]&#45;&gt;Agda.Syntax.Parser.LexActions.skip\n@[158,158]</title>
<path fill="none" stroke="black" d="M2636,-191.74C2636,-184.04 2636,-175.59 2636,-167.43"/>
<polygon fill="black" stroke="black" points="2639.5,-167.57 2636,-157.57 2632.5,-167.57 2639.5,-167.57"/>
</g>
<!-- Agda.Syntax.Parser.Lexer.alex_action_37\n@[366,366]&#45;&gt;Agda.Syntax.Parser.LexActions.begin\n@[162,162] -->
<g id="edge30" class="edge">
<title>Agda.Syntax.Parser.Lexer.alex_action_37\n@[366,366]&#45;&gt;Agda.Syntax.Parser.LexActions.begin\n@[162,162]</title>
<path fill="none" stroke="black" d="M1596.33,-198.18C1513.82,-183.93 1408.14,-165.69 1324.57,-151.25"/>
<polygon fill="black" stroke="black" points="1325.42,-147.68 1314.97,-149.42 1324.23,-154.58 1325.42,-147.68"/>
</g>
<!-- Agda.Syntax.Parser.Lexer.alex_action_38\n@[367,367]&#45;&gt;Agda.Syntax.Parser.LexActions.skip\n@[158,158] -->
<g id="edge31" class="edge">
<title>Agda.Syntax.Parser.Lexer.alex_action_38\n@[367,367]&#45;&gt;Agda.Syntax.Parser.LexActions.skip\n@[158,158]</title>
<path fill="none" stroke="black" d="M2970.57,-196.66C2905.87,-183.22 2825.81,-166.59 2760.23,-152.96"/>
<polygon fill="black" stroke="black" points="2761.33,-149.41 2750.83,-150.8 2759.91,-156.26 2761.33,-149.41"/>
</g>
<!-- Agda.Syntax.Parser.Lexer.alex_action_39\n@[368,368]&#45;&gt;Agda.Syntax.Parser.Layout.offsideRule\n@[142,151] -->
<g id="edge32" class="edge">
<title>Agda.Syntax.Parser.Lexer.alex_action_39\n@[368,368]&#45;&gt;Agda.Syntax.Parser.Layout.offsideRule\n@[142,151]</title>
<path fill="none" stroke="black" d="M1115.21,-197.09C1046.67,-183.59 961.28,-166.78 891.4,-153.02"/>
<polygon fill="black" stroke="black" points="892.25,-149.43 881.76,-150.93 890.9,-156.3 892.25,-149.43"/>
</g>
<!-- Agda.Syntax.Parser.Lexer.alex_action_40\n@[369,369]&#45;&gt;Agda.Syntax.Parser.LexActions.skip\n@[158,158] -->
<g id="edge33" class="edge">
<title>Agda.Syntax.Parser.Lexer.alex_action_40\n@[369,369]&#45;&gt;Agda.Syntax.Parser.LexActions.skip\n@[158,158]</title>
<path fill="none" stroke="black" d="M2301.43,-196.66C2366.13,-183.22 2446.19,-166.59 2511.77,-152.96"/>
<polygon fill="black" stroke="black" points="2512.09,-156.26 2521.17,-150.8 2510.67,-149.41 2512.09,-156.26"/>
</g>
<!-- Agda.Syntax.Parser.Lexer.alex_actions\n@[697,1272]&#45;&gt;Agda.Syntax.Parser.Lexer.alex_action_32\n@[361,361] -->
<g id="edge34" class="edge">
<title>Agda.Syntax.Parser.Lexer.alex_actions\n@[697,1272]&#45;&gt;Agda.Syntax.Parser.Lexer.alex_action_32\n@[361,361]</title>
<path fill="none" stroke="black" d="M2379.6,-313.92C2667.79,-307.81 3210.94,-291.77 3672,-252.31 3693.26,-250.49 3715.59,-248.16 3737.61,-245.6"/>
<polygon fill="black" stroke="black" points="3737.87,-248.98 3747.39,-244.33 3737.05,-242.03 3737.87,-248.98"/>
</g>
<!-- Agda.Syntax.Parser.Lexer.alex_actions\n@[697,1272]&#45;&gt;Agda.Syntax.Parser.Lexer.alex_action_36\n@[365,365] -->
<g id="edge35" class="edge">
<title>Agda.Syntax.Parser.Lexer.alex_actions\n@[697,1272]&#45;&gt;Agda.Syntax.Parser.Lexer.alex_action_36\n@[365,365]</title>
<path fill="none" stroke="black" d="M2293.57,-293.31C2358.38,-280.05 2438.98,-263.56 2505.71,-249.91"/>
<polygon fill="black" stroke="black" points="2506.2,-253.18 2515.29,-247.75 2504.79,-246.32 2506.2,-253.18"/>
</g>
<!-- Agda.Syntax.Parser.Lexer.alex_actions\n@[697,1272]&#45;&gt;Agda.Syntax.Parser.Lexer.alex_action_37\n@[366,366] -->
<g id="edge36" class="edge">
<title>Agda.Syntax.Parser.Lexer.alex_actions\n@[697,1272]&#45;&gt;Agda.Syntax.Parser.Lexer.alex_action_37\n@[366,366]</title>
<path fill="none" stroke="black" d="M2060.85,-293.07C1998.63,-279.94 1921.65,-263.7 1857.61,-250.18"/>
<polygon fill="black" stroke="black" points="1858.54,-246.59 1848.04,-247.95 1857.1,-253.44 1858.54,-246.59"/>
</g>
<!-- Agda.Syntax.Parser.Lexer.alex_actions\n@[697,1272]&#45;&gt;Agda.Syntax.Parser.Lexer.alex_action_38\n@[367,367] -->
<g id="edge37" class="edge">
<title>Agda.Syntax.Parser.Lexer.alex_actions\n@[697,1272]&#45;&gt;Agda.Syntax.Parser.Lexer.alex_action_38\n@[367,367]</title>
<path fill="none" stroke="black" d="M2321.94,-296.87C2346.31,-293.77 2371.35,-290.79 2395,-288.31 2602.48,-266.59 2655.48,-273.62 2863,-252.31 2883.11,-250.25 2904.19,-247.85 2925.06,-245.33"/>
<polygon fill="black" stroke="black" points="2925.44,-248.69 2934.95,-244.01 2924.6,-241.74 2925.44,-248.69"/>
</g>
<!-- Agda.Syntax.Parser.Lexer.alex_actions\n@[697,1272]&#45;&gt;Agda.Syntax.Parser.Lexer.alex_action_39\n@[368,368] -->
<g id="edge38" class="edge">
<title>Agda.Syntax.Parser.Lexer.alex_actions\n@[697,1272]&#45;&gt;Agda.Syntax.Parser.Lexer.alex_action_39\n@[368,368]</title>
<path fill="none" stroke="black" d="M2028.94,-297.06C2003.96,-293.91 1978.26,-290.87 1954,-288.31 1754.02,-267.26 1703.19,-271.27 1503,-252.31 1474.27,-249.59 1443.82,-246.47 1414.19,-243.31"/>
<polygon fill="black" stroke="black" points="1414.63,-239.73 1404.32,-242.15 1413.89,-246.69 1414.63,-239.73"/>
</g>
<!-- Agda.Syntax.Parser.Lexer.alex_actions\n@[697,1272]&#45;&gt;Agda.Syntax.Parser.Lexer.alex_action_40\n@[369,369] -->
<g id="edge39" class="edge">
<title>Agda.Syntax.Parser.Lexer.alex_actions\n@[697,1272]&#45;&gt;Agda.Syntax.Parser.Lexer.alex_action_40\n@[369,369]</title>
<path fill="none" stroke="black" d="M2178.2,-287.85C2178.77,-280.14 2179.4,-271.7 2180,-263.54"/>
<polygon fill="black" stroke="black" points="2183.56,-263.9 2180.81,-253.67 2176.58,-263.39 2183.56,-263.9"/>
</g>
<!-- Agda.Syntax.Parser.Lexer.alex_scan_tkn\n@[1613,1663]&#45;&gt;Agda.Syntax.Parser.Lexer.alex_accept\n@[74,695] -->
<g id="edge40" class="edge">
<title>Agda.Syntax.Parser.Lexer.alex_scan_tkn\n@[1613,1663]&#45;&gt;Agda.Syntax.Parser.Lexer.alex_accept\n@[74,695]</title>
<path fill="none" stroke="black" d="M1576.85,-385.62C1604.09,-374.76 1635.45,-362.25 1663.55,-351.05"/>
<polygon fill="black" stroke="black" points="1664.74,-353.94 1672.74,-346.98 1662.15,-347.44 1664.74,-353.94"/>
</g>
<!-- Agda.Syntax.Parser.Lexer.alex_scan_tkn\n@[1613,1663]&#45;&gt;Agda.Syntax.Parser.Lexer.alex_scan_tkn\n@[1613,1663] -->
<g id="edge41" class="edge">
<title>Agda.Syntax.Parser.Lexer.alex_scan_tkn\n@[1613,1663]&#45;&gt;Agda.Syntax.Parser.Lexer.alex_scan_tkn\n@[1613,1663]</title>
<path fill="none" stroke="black" d="M1685.01,-431.4C1716.45,-429.17 1738.37,-423.53 1738.37,-414.47 1738.37,-406.47 1721.29,-401.14 1695.65,-398.46"/>
<polygon fill="black" stroke="black" points="1696.28,-394.92 1686.01,-397.54 1695.67,-401.89 1696.28,-394.92"/>
</g>
<!-- Agda.Syntax.Parser.Lexer.lexer\n@[314,314]&#45;&gt;Agda.Syntax.Parser.LexActions.lexToken\n@[74,89] -->
<g id="edge42" class="edge">
<title>Agda.Syntax.Parser.Lexer.lexer\n@[314,314]&#45;&gt;Agda.Syntax.Parser.LexActions.lexToken\n@[74,89]</title>
<path fill="none" stroke="black" d="M3403.3,-248.09C3155.73,-315.86 2469.18,-503.8 2203.71,-576.47"/>
<polygon fill="black" stroke="black" points="2203.02,-573.3 2194.3,-579.32 2204.87,-580.05 2203.02,-573.3"/>
</g>
</g>
</svg>
